<svg xmlns="http://www.w3.org/2000/svg" version="1.1" style="display: none;">
	<!-- Hamburder Menu -->
    <symbol id="hamburger-menu" viewBox="0 0 18 18">
    	<rect y="13" width="18" height="2"/>
    	<rect y="8" width="18" height="2"/>
    	<rect y="3" width="18" height="2"/>
	</symbol>

	<!-- Arrow -->
	<symbol id="arrow" viewBox="0 0 18 18">
		<path d="M17 8H4.8l5.6-5.6L9 1 1 9l8 8 1.4-1.4L4.8 10H17V8z"/>
	</symbol>

    <symbol id="home" viewBox="0 0 18 18">
        <path d="M7,17v-5h4v5h5v-7h2L9,1l-9,9h2v7H7z"/>
    </symbol>

	<!-- Close -->
	<symbol id="close" viewBox="0 0 18 18">
		<polygon points="16 3.4 14.6 2 9 7.6 3.4 2 2 3.4 7.6 9 2 14.6 3.4 16 9 10.4 14.6 16 16 14.6 10.4 9 "/>
	</symbol>

    <!-- LinkedIn -->
    <symbol id="linkedin" viewBox="0 0 100 100">
        <path fill="#0077b5" d="M92.6 0H7.38C3.3 0 0 3.23 0 7.2v85.6c0 3.97 3.3 7.2 7.38 7.2H92.6c4.08 0 7.4-3.23 7.4-7.2V7.2c0-3.97-3.32-7.2-7.4-7.2zM29.66 85.2H14.82V37.5h14.84v47.7zm-7.42-54.23c-4.76 0-8.6-3.85-8.6-8.6s3.84-8.6 8.6-8.6c4.75 0 8.6 3.85 8.6 8.6s-3.85 8.6-8.6 8.6zM85.22 85.2H70.4V62c0-5.53-.1-12.65-7.72-12.65-7.72 0-8.9 6.03-8.9 12.26v23.6h-14.8V37.5h14.2V44h.2c2-3.74 6.83-7.7 14.05-7.7 15 0 17.8 9.9 17.8 22.74V85.2z"/>
    </symbol>

    <!-- GitHub -->
    <symbol id="github" viewBox="0 0 100 100">
        <path fill="#000000" d="M50 1.23c-27.6 0-50 22.4-50 50 0 22.1 14.33 40.84 34.2 47.45 2.5.46 3.4-1.1 3.4-2.4l-.06-8.5c-13.9 3-16.84-6.72-16.84-6.72-2.28-5.77-5.55-7.3-5.55-7.3-4.54-3.1.34-3.05.34-3.05 5 .4 7.6 5.2 7.6 5.2 4.46 7.65 11.7 5.45 14.55 4.17.44-3.23 1.74-5.44 3.16-6.7-11.1-1.25-22.76-5.54-22.76-24.7 0-5.46 1.94-9.92 5.14-13.42-.5-1.25-2.23-6.33.5-13.22 0 0 4.2-1.33 13.74 5.14 3.97-1.1 8.25-1.66 12.5-1.7 4.25.04 8.53.6 12.52 1.7 9.62-6.53 13.8-5.17 13.8-5.17 2.72 6.9 1 11.97.5 13.23 3.2 3.5 5.13 7.97 5.13 13.43 0 19.2-11.7 23.44-22.84 24.67 1.8 1.54 3.4 4.6 3.4 9.25 0 6.7-.06 12.08-.06 13.72 0 1.34.9 2.9 3.44 2.4C85.7 92.05 100 73.32 100 51.24c0-27.62-22.4-50-50-50z"/>
    </symbol>

    <!-- Twitter -->
    <symbol id="twiter" viewBox="0 0 100 100">
        <path fill="#1da1f2" d="M31.45 93.65c37.73 0 58.37-31.27 58.37-58.38 0-.9 0-1.77-.06-2.65 4.02-2.9 7.5-6.5 10.24-10.62-3.74 1.66-7.72 2.75-11.78 3.23 4.28-2.57 7.48-6.6 9.02-11.35-4.03 2.4-8.44 4.07-13.03 4.98-7.74-8.26-20.74-8.66-29-.9-5.33 5.02-7.6 12.5-5.94 19.6-16.5-.8-31.86-8.6-42.28-21.42C1.5 25.5 4.3 37.5 13.3 43.52c-3.25-.1-6.45-.97-9.3-2.56v.26c0 9.76 6.9 18.17 16.46 20.1-3.02.83-6.2.95-9.26.36 2.68 8.36 10.4 14.08 19.16 14.25-7.26 5.7-16.24 8.8-25.48 8.8-1.63 0-3.26-.1-4.88-.3 9.38 6.02 20.3 9.22 31.45 9.2"/>
    </symbol>

    <!-- Dribbble -->
    <symbol id="dribbble" viewBox="0 0 100 100">
        <circle fill="#ea4C89" cx="50" cy="50" r="48"/>
        <path fill="#c32361" d="M50 99.93C22.43 99.93 0 77.53 0 50S22.43.07 50 .07s50 22.4 50 49.93-22.43 49.93-50 49.93zm42.17-43.1c-1.46-.46-13.22-3.96-26.6-1.82 5.58 15.36 7.85 27.85 8.3 30.44 9.57-6.47 16.4-16.72 18.3-28.58zm-25.5 32.5c-.62-3.75-3.1-16.8-9.1-32.35l-.28.1C33.2 65.46 24.52 82.14 23.8 83.7c7.23 5.65 16.33 9.02 26.2 9.02 5.92 0 11.55-1.2 16.68-3.4zm-48.4-10.75c.97-1.65 12.7-21.03 34.72-28.14.52-.18 1.1-.35 1.65-.5-1.07-2.43-2.24-4.86-3.46-7.25-21.3 6.35-42 6.1-43.9 6.04v1.3C7.3 61 11.44 71 18.26 78.57zM8.2 41.33c1.9.02 19.5.1 39.48-5.2C40.6 23.57 32.98 13 31.84 11.47 19.9 17.1 10.96 28.1 8.2 41.33zM40 8.6c1.17 1.58 8.93 12.13 15.93 24.97 15.18-5.7 21.6-14.32 22.38-15.4C70.8 11.47 60.88 7.4 50 7.4c-3.45 0-6.8.43-10 1.2zm43.06 14.5c-.9 1.2-8.06 10.37-23.85 16.8 1 2.04 1.98 4.1 2.86 6.2.32.73.62 1.46.92 2.2 14.22-1.8 28.33 1.06 29.74 1.36-.1-10.06-3.7-19.3-9.63-26.57z"/>
    </symbol>

    <!-- Facebook -->
    <symbol id="facebook" viewBox="0 0 100 100">
        <path fill="#3b5998" d="M94.48 0H5.52C2.47 0 0 2.47 0 5.52v88.96C0 97.53 2.47 100 5.52 100h47.9V61.27H40.37v-15.1H53.4v-11.1c0-12.9 7.9-19.96 19.42-19.96 5.52 0 10.27.4 11.65.6v13.5h-8c-6.26 0-7.47 3-7.47 7.37v9.63h14.94L82 61.27H69V100h25.48c3.05 0 5.52-2.47 5.52-5.52V5.52C100 2.47 97.53 0 94.48 0z"/>
    </symbol>
</svg>