<svg xmlns="http://www.w3.org/2000/svg" version="1.1" style="display: none;">
	<!-- Hamburder Menu -->
    <symbol id="hamburger-menu" viewBox="0 0 18 18">
    	<rect y="13" width="18" height="2"/>
    	<rect y="8" width="18" height="2"/>
    	<rect y="3" width="18" height="2"/>
	</symbol>

	<!-- Arrow -->
	<symbol id="arrow" viewBox="0 0 18 18">
		<path d="M17 8H4.8l5.6-5.6L9 1 1 9l8 8 1.4-1.4L4.8 10H17V8z"/>
	</symbol>

	<!-- House, Home -->
    <symbol id="home" viewBox="0 0 18 18">
        <path d="M7,17v-5h4v5h5v-7h2L9,1l-9,9h2v7H7z"/>
    </symbol>

	<!-- Close -->
	<symbol id="close" viewBox="0 0 18 18">
		<polygon points="16 3.4 14.6 2 9 7.6 3.4 2 2 3.4 7.6 9 2 14.6 3.4 16 9 10.4 14.6 16 16 14.6 10.4 9 "/>
	</symbol>

    <!-- UWM Milwaukee -->
    <symbol id="uwm" viewBox="0 0 100 70">
        <path d="M58.5 35.5h10.75l1.3-15.1c.13-1.4.2-2.85.3-4.26h.35c.1 1.5.37 2.9.7 4.4l3.98 14.95h6.5l4.42-15.9c.33-1.2.53-2.4.73-3.6h.2l1.5 19.35H100L94.96.15H83.63l-3.45 13.88c-.37 1.5-.57 3.13-.77 4.68h-.2L74.9.2H63.45L58.5 35.5zM100 50.06c-2.53-.88-5.6-1.4-8.92-1.4-11.9 0-18.95 7.88-33.48 6.8-.94 0-1.7-.75-1.7-1.7 0-.14 0-.3.05-.43l-.55 3.83c-.04.14-.06.3-.06.45 0 1 .77 1.7 1.7 1.7 14.53 1.1 22.14-6.8 34.04-6.8 3.32 0 6.4.6 8.92 1.4v10.6c-2.53-.8-5.6-1.3-8.92-1.3-11.9 0-20.02 7.8-34.55 6.7-1.34 0-2.43-1.1-2.43-2.4 0-.12 0-.3.03-.4l.96-6.65L2 66.25V55.47l54.3-3.93.42-2.9-54.7 2.16V40h53.04c1.34 0 2.42 1.1 2.42 2.44l-.05.4c-.04.15-.06.3-.06.45 0 .9.77 1.7 1.7 1.7 14.54 1 20.1-6.7 32-6.7 3.33 0 6.4.5 8.93 1.3V50z"/>
        <path d="M39.37.18c.33 0 .36.15.36.45v1.7c0 .15-.03.3-.07.35-.07.05-1.13.1-1.2.1-1 .05-2.06.4-2.06 1.9 0 .8.15 1.44.8 4.1l4.26 17.72C43.98 16.8 47 4.07 48.06.32c.15-.15.2-.15.37-.15.95 0 1.38-.1 1.5.2l7.64 27.97-.97 6.75c-.08.4-.2.4-.52.4h-2.23c-.3 0-.33-.1-.48-.5-.8-4-1.13-5.3-2.38-9.9-1.4-4.9-2.6-10.5-3.5-14.7-1.2 5.2-1.5 6.4-4.2 17.1-1 3.6-1.3 4.8-1.9 7.6-.2.3-.2.3-.5.3h-2.7c-.3 0-.3-.2-.4-.5L31.2 9.1c-.8-3-1.24-5.96-2.97-5.96-1 0-1.23 1.4-1.23 3.26v14.4c-.02 3.3-.02 8.2-3.2 12-.85 1.05-3.6 3.95-9.2 3.95-2.5 0-5.7-.7-8.1-3.2-3-3.14-3.17-7.1-3.2-10.64V7.3C3.32 3.7 3 2.7.18 2.7c-.2 0-.2-.05-.24-.35V.63C0 .28 0 .08.4.08c.9 0 9.8.05 12 0 .1 0 .26.05.26.35v1.9c-.03.35-.1.35-.54.35-3.14 0-2.97 1.3-2.97 4.95V18.9l.08 4.05c.1 2.05.23 3.95 1.13 5.95.63 1.4 2.5 4.3 6.23 4.3 2 0 4-.86 5.5-2.6 2.2-2.6 2.5-6.1 2.5-9.94V7.12c0-3.5-.3-4.38-3.8-4.58-.3 0-.3-.05-.3-.3V.54c0-.3 0-.36.2-.36h18.6z"/>
    </symbol>

    <!-- UW Madison -->
    <symbol id="uw" viewBox="0 0 64 100">
        <path d="M63.451 35.8803c-.21-2.1175-.539-4.2214-.9854-6.302-.409-1.9152-.941-3.802-1.5927-5.6488-.687-1.9532-1.542-3.8432-2.556-5.6488-.966-1.69-2.119-3.266-3.438-4.6978-3.149-3.679-7.707-5.852-12.547-5.982h-.069c-.989-1.788-2.748-3.019-4.767-3.335-.764-3.025-3.835-4.858-6.86-4.094-2.014.508-3.586 2.08-4.094 4.094-2.019.315-3.779 1.546-4.767 3.334h-.069c-4.862.116-9.445 2.295-12.604 5.992-1.318 1.432-2.471 3.008-3.437 4.698-1.014 1.805-1.869 3.695-2.555 5.649-.652 1.846-1.184 3.733-1.593 5.648-.446 2.081-.775 4.185-.985 6.302-2.578 25.907 9.075 57.761 30.032 62.642.333.619.838 1.129 1.455 1.466.617-.338 1.122-.848 1.455-1.467 20.959-4.878 32.612-36.732 29.977-62.65zM32.0214.9903c2.0522-.103 3.9103 1.2065 4.503 3.174-1.8544.1455-3.5137 1.2073-4.4228 2.8302-.014.0426-.0424.079-.0802.103-.0392-.0223-.068-.0594-.0802-.103-.909-1.623-2.5684-2.6847-4.4228-2.8302.5927-1.9675 2.4507-3.277 4.503-3.174zm-2.588 4.6482c.157.0807.3095.17.4568.2674.899.537 1.5526 1.405 1.8218 2.417.0204.186.1383.347.3094.424.1888-.086.31-.274.3094-.482.2692-1.013.923-1.88 1.8218-2.418 2.2234-1.445 5.197-.814 6.6415 1.41.085.129.163.263.234.4-.647.119-1.286.28-1.913.481-1.004.309-1.933.824-2.727 1.512-1.977 1.819-3.203 4.312-3.437 6.989-.767 8.376 8.846 7.058 9.327 7.024 1.238 0 2.177-1.96 2.177-4.584s-.962-4.583-2.177-4.583c-.745 0-2.028.596-2.154 2.922-.08 1.753.722 3.93 1.753 4.056.539.069 1.02-.871 1.146-1.833.126-.963.069-2.143-.676-2.292-.233-.058-.469.085-.526.319v.002c.262.465.437.974.516 1.501 0 1.432-1.467.722-1.283-1.558.138-1.994 1.157-1.891 1.203-1.891.573 0 1.444 1.146 1.444 3.437 0 2.005-.962 4.159-2.819 3.036-1.558-1.146-2.165-3.758-1.741-5.729.195-.928.997-3.437 3.587-3.437 3.735 0 7.219 1.959 9.991 5.614-.309.974-2.234 4.698-8.341 8.261l-.332.172c-1.769-.813-3.702-1.205-5.648-1.146-1.794.128-3.573.412-5.317.848-.344.0974-.697.155-1.054.172-.357-.017-.7102-.0746-1.054-.172-1.744-.436-3.523-.7197-5.317-.848-1.946-.059-3.88.333-5.649 1.146l-.332-.172c-6.119-3.563-8.021-7.287-8.342-8.261 2.773-3.655 6.256-5.6145 9.992-5.6145 2.5896 0 3.4375 2.532 3.5865 3.437.435 2.028-.184 4.641-1.742 5.729-1.845 1.146-2.819-1.031-2.819-3.036 0-2.292.871-3.4377 1.444-3.4377 0 0 1.077-.126 1.249 1.8906.194 2.2914-1.249 2.9904-1.284 1.5582.054-.535.205-1.056.447-1.536-.0564-.2186-.27-.3578-.493-.321-.745.1832-.814 1.4894-.676 2.2915.1374.802.6415 1.902 1.1456 1.833 1.031-.1377 1.833-2.292 1.7415-3.942-.115-2.2913-1.409-2.9215-2.154-2.9215-1.215 0-2.177 1.959-2.177 4.583s.9398 4.583 2.177 4.583c.481 0 10.0948 1.352 9.327-7.0237-.234-2.677-1.46-5.17-3.4373-6.989-.794-.688-1.723-1.203-2.727-1.5126-.641-.211-1.296-.379-1.959-.504 1.211-2.359 4.105-3.289 6.464-2.078zm2.5994 84.92c-.699 0-2.6927.3094-2.9906 1.8218v.149c-1.4363-.5312-2.8116-1.215-4.102-2.0395 1.7128-1.3185 3.0907-3.0222 4.0218-4.973.946.6832 1.9737 1.2452 3.0593 1.673 1.0856-.4278 2.1134-.9898 3.0593-1.673.9377 1.9532 2.3236 3.657 4.0448 4.973-1.2905.8245-2.6657 1.5083-4.102 2.0395v-.149c-.298-1.5124-2.2916-1.8218-2.9906-1.8218zm.4125-4.824l-.424.1835-.4238-.1834c-5.305-2.349-10.6217-9.2467-14.9987-18.9746-2.9666-6.861-4.353-14.3013-4.056-21.7704.08-3.0822.9738-12.4893 7.4133-16.5226 1.53-.866 3.25-1.342 5.008-1.3865 3.14-.2062 5.489 1.0427 7.058 1.0427h.046c1.57-.046 3.896-1.249 7.036-1.0427 1.742.0386 3.448.4986 4.973 1.3407 6.394 4.079 7.299 13.4862 7.425 16.5684.313 7.461-1.054 14.8968-3.999 21.759-4.434 9.7508-9.774 16.6944-15.056 18.986zM11.8207 40.4523c-2.3215-.2037-4.582-.8534-6.6572-1.9136.5042-8.376 2.624-14.9528 5.729-19.3298.55 1.42 2.9448 4.984 8.4677 8.227-4.698 2.83-6.875 8.662-7.5395 13.016zm-.103.5843c-.1716 1.258-.2788 2.5238-.321 3.7926-.258 5.9137.5175 11.8268 2.2916 17.4737 1.2055 3.713 2.7914 7.291 4.7322 10.679-1.7072 1.364-3.7273 2.282-5.878 2.669C7.104 64.295 4.5573 51.77 5.1292 39.191c2.0622 1.02 4.2966 1.6456 6.5884 1.845zm7.0237 32.4838c3.529 6.0728 7.0124 9.6935 9.682 11.607-.923 1.9656-2.316 3.6735-4.056 4.973-4.5833-3.0937-8.479-8.0208-11.5384-13.8988 2.1592-.4008 4.1883-1.321 5.9124-2.6812zm16.8866 11.623c2.6688-1.915 6.148-5.534 9.6734-11.6 1.7217 1.3683 3.751 2.2965 5.9124 2.704-3.0593 5.832-6.9436 10.782-11.5383 13.853-1.735-1.296-3.1242-2.9983-4.0474-4.957zm9.9916-12.167c1.942-3.389 3.529-6.9696 4.7347-10.685.8713-2.7368 1.5075-5.5427 1.902-8.3875.4006-3.008.531-6.045.3896-9.075-.058-1.27-.18-2.536-.367-3.793 2.292-.2 4.526-.825 6.588-1.845.586 12.574-1.945 25.099-7.368 36.46-2.152-.389-4.173-1.309-5.881-2.675zm6.614-32.5472v.023C51.523 36.098 49.369 30.369 44.694 27.4356c5.5228-3.2426 7.929-6.806 8.4676-8.227 3.0822 4.377 5.2134 10.954 5.729 19.33-2.077 1.0522-4.337 1.694-6.657 1.8906zM28.584 96.7002c-2.3893-.7962-4.6538-1.9265-6.726-3.3573-1.3156-.905-2.5606-1.909-3.724-3.002-.9486-.894-1.8475-1.839-2.6926-2.831-.5806-.672-1.1382-1.364-1.673-2.074-2.561-3.436-4.707-7.163-6.3936-11.103-1.627-3.794-2.9304-7.719-3.8958-11.733-1.0042-4.069-1.69-8.211-2.051-12.386-.375-4.131-.4017-8.286-.0802-12.421.1948-2.2.4584-4.412.8823-6.6.378-2.172.914-4.312 1.605-6.405.642-1.922 1.447-3.785 2.406-5.569.977-1.846 2.19-3.556 3.61-5.088 1.332-1.417 2.879-2.616 4.583-3.552.711-.388 1.45-.721 2.212-.997.39-.138.772-.26 1.146-.367.376-.122.759-.221 1.146-.298.969-.17 1.951-.251 2.934-.241 1.558-.024 3.094.372 4.446 1.145 2.245 1.6 3.65 4.124 3.827 6.875.447 5.179-4.823 5.992-5.855 5.981-.16 0-.24-.149.275-.676 1.174-1.706 1.589-3.821 1.146-5.844-.504-2.372-2.177-4.228-4.583-4.228-3.589.113-6.966 1.73-9.304 4.457-2.261 2.666-3.964 5.76-5.007 9.098-1.446 4.213-2.309 8.604-2.566 13.05-.255 4.06-.163 8.135.275 12.18.423 4.096 1.166 8.153 2.223 12.134 1.021 3.872 2.374 7.648 4.044 11.287 1.666 3.68 3.775 7.143 6.279 10.312 2.52 3.265 5.692 5.97 9.316 7.94.818.438 1.664.821 2.532 1.146.001 1.194.28 2.371.814 3.438-.389-.062-.772-.154-1.146-.275zm3.7925 1.7645l-.023.0114c-.0896.117-.214.201-.355.241-.141-.04-.2656-.124-.3553-.24-1.4075-1.63-2.0387-3.791-1.7302-5.923.1377-.733 1.375-1.065 2.0855-1.077.7104-.011 1.948.344 2.0854 1.077.311 2.125-.312 4.281-1.708 5.913zm30.238-48.2503c-.361 4.1757-1.047 8.317-2.051 12.3862-.9754 3.999-2.2862 7.9086-3.9187 11.6873-1.6866 3.939-3.8327 7.666-6.3938 11.102-.5347.71-1.0923 1.401-1.6728 2.074-.8452.992-1.744 1.936-2.6927 2.83-1.1634 1.093-2.4083 2.097-3.724 3.002-2.0624 1.445-4.319 2.591-6.703 3.403-.374.121-.7572.213-1.1457.275.536-1.106.7993-2.324.7677-3.552.8687-.325 1.7147-.708 2.5323-1.146 3.6168-1.951 6.789-4.631 9.3155-7.872 2.5044-3.17 4.613-6.633 6.279-10.313 1.67-3.639 3.0232-7.415 4.0448-11.286 1.071-3.964 1.829-8.006 2.269-12.089.438-4.045.53-8.12.275-12.18-.257-4.447-1.121-8.838-2.566-13.051-1.087-3.319-2.828-6.385-5.121-9.018-2.338-2.727-5.714-4.344-9.304-4.458-2.429 0-4.102 1.856-4.583 4.228-.443 2.022-.028 4.138 1.146 5.844.516.527.436.676.275.676-1.031 0-6.313-.814-5.855-5.981.178-2.751 1.583-5.276 3.827-6.875 1.353-.774 2.888-1.17 4.446-1.146.983-.01 1.965.07 2.933.24.388.076.77.176 1.146.298.397.107.779.229 1.146.366.761.276 1.501.609 2.211.997 1.705.936 3.251 2.135 4.583 3.552 1.42 1.531 2.633 3.242 3.61 5.087.995 1.754 1.838 3.59 2.521 5.488.691 2.093 1.227 4.233 1.605 6.405.401 2.188.664 4.4.848 6.611.332 4.13.316 8.281-.046 12.409z"/>
        <path d="M41.5316 37.599v2.0855h.6302c.3427-.0172.679.0976.9396.3208.2747.363.3638.8336.2406 1.272 0 0-4.2853 18.5506-5.099 22.0797-.9395-4.4687-6.027-28.8516-6.027-28.8516v-.103h-1.031v.1145l-4.4344 28.45-5.0416-21.713c-.0055-.107-.0055-.214 0-.321-.052-.415.0776-.833.3552-1.146.2308-.16.512-.229.7906-.195h.424V37.53H16.129v2.0167h.3208c.5186.0748.9448.4472 1.0885.951l8.754 37.5483v.103h1.2604v-.1144l4.079-26.6974 5.1906 26.709v.103h1.1458l8.308-37.5597c.134-.5193.61-.8763 1.146-.8594h.493v-2.131h-6.382z"/>
    </symbol>

    <!-- AccuLynx -->
    <symbol id="acculynx" viewBox="0 0 88 100">
        <path d="M25.18 36.35l.178.982c1.446 8.03 5.07 12.13 10.772 12.193l.404 2.255-1.76.72c-3.747 1.535-6.313 4.536-7.625 8.92l-.11.362 9.17 6.167.29-.34c2.22-2.54 4.74-4.08 7.49-4.59 2.74.51 5.26 2.05 7.48 4.58l.29.34 9.17-6.17-.11-.37c-1.31-4.39-3.88-7.39-7.63-8.92l-1.76-.72.402-2.26c5.7-.06 9.323-4.17 10.77-12.19l.18-.99-16.506 7.8 4.46.29-3.52 8.4h-6.5l-3.52-8.41 4.46-.29-16.507-7.79zm25.922 17.463l.267-1.492 1.34 1.06c2.26 1.79 3.33 3.73 3.26 5.95l-4.03 5.12c-2.21-2.4-4.72-3.75-7.49-4.04v-.55l6.64-6.04zm-7.56 6.043l-.003.55c-2.78.286-5.29 1.637-7.49 4.045l-4.03-5.12c-.07-2.22 1-4.16 3.26-5.95l1.34-1.06.26 1.5 6.64 6.05zm-20.754 10.1l.07-2.345-1.044 2.11c-2.756 5.56-3.772 12.67-3.02 21.16l.015.16.1.13c2.7 3.2 6.27 5.83 10.61 7.81l2.12 1.04-1.52-1.83c-5.25-6.11-7.72-15.6-7.34-28.21zm42.355-2.346l.07 2.346c.37 12.608-2.1 22.1-7.342 28.21L56.36 100l2.122-1.033c4.344-1.982 7.914-4.61 10.612-7.812l.105-.124.01-.16c.75-8.48-.27-15.6-3.02-21.15l-1.04-2.1z"/>
        <path d="M59.345 67.537l1.684-2.29-2.38 1.556c-3.02 1.975-5.52 5.712-7.42 11.032H36.76c-1.9-5.32-4.395-9.057-7.415-11.032l-2.38-1.557 1.687 2.29c3.92 5.332 5.555 10.302 4.865 14.772l-.09.646h21.14l-.09-.646c-.69-4.47.944-9.44 4.864-14.77z"/>
        <path d="M86.73 47.83c-4.907 3.218-9.852 3.718-14.782 1.484 4.314-11.074 4.215-21.63-.296-31.384 3.262-4.585 2.473-10.602 1.58-13.183L71.592 0l.646 4.98c.01.067.78 6.328-2.098 9.997-.95-1.687-2.044-3.37-3.26-5.01l-.865.55c1.063 1.96 2.003 3.89 2.798 5.747-.19.137-.388.266-.594.385-1.69.96-3.59 1.75-5.42 2.52-4 1.68-7.79 3.32-9.28 6.5H34.46c-1.486-3.18-5.272-4.82-9.274-6.5-1.83-.77-3.72-1.57-5.41-2.53-.207-.12-.406-.25-.595-.39.8-1.86 1.74-3.79 2.8-5.75l-.86-.55c-1.21 1.64-2.31 3.32-3.26 5.01-2.88-3.67-2.1-9.93-2.09-10L16.41 0l-1.643 4.747c-.892 2.58-1.68 8.598 1.58 13.183-4.51 9.755-4.61 20.31-.295 31.384-4.93 2.234-9.875 1.734-14.78-1.485l-.987-.65.198 1.16C3.55 66.43 8.943 79.89 16.51 88.35l1.11 1.24-.217-1.65c-1.386-10.52-.64-18.555 2.216-23.88l2-3.746-2.85 3.158c-3.09 3.427-5.01 6.89-5.74 10.315-2.32-5.17-3.86-10.084-4.6-14.632 7.22-1.066 12.6-4.968 15.18-11.03 3.27-7.66 1.49-17.544-4.63-25.792l-.86.568c4.85 8.18 5.394 15.83 1.623 22.76-4.82-7.13-5.46-15.87-1.91-25.99 1.42 1.33 3.22 2.35 5.37 3.04 3.29 1.06 6.157 7.21 6.186 7.27l.2.51.45-.24c1.535-.57 6.774-.94 13.344-.94h1.185c6.57 0 11.81.38 13.35.95l.447.25.2-.51c.03-.06 2.898-6.21 6.188-7.262 2.15-.695 3.95-1.716 5.37-3.045 3.55 10.12 2.91 18.86-1.91 26C64.45 38.75 65 31.1 69.84 22.92l-.85-.57c-6.12 8.25-7.89 18.135-4.63 25.796 2.588 6.06 7.967 9.96 15.18 11.03-.732 4.542-2.28 9.46-4.59 14.63-.726-3.43-2.65-6.89-5.733-10.32l-2.84-3.16 2.01 3.746c2.853 5.327 3.6 13.36 2.213 23.88l-.215 1.65 1.11-1.24c7.57-8.46 12.96-21.92 16.03-40.004l.196-1.16-.98.65z"/>
    </symbol>

    <!-- NAB North American Bioindustires -->
    <symbol id="nab" viewBox="0 0 100 84">
        <path d="M88.46 57.04V26.96c6.5-.94 11.54-6.54 11.54-13.3C100 6.22 93.96.18 86.54.18c-7.42 0-13.46 6.03-13.46 13.45 0 3.57 1.4 6.82 3.68 9.23L68.3 34.72c-2-1.16-4.3-1.84-6.76-1.84-7.42 0-13.46 6.04-13.46 13.47S54.12 59.8 61.54 59.8 75 53.78 75 46.36c0-3.57-1.4-6.82-3.68-9.23l8.46-11.84c1.46.82 3.1 1.4 4.84 1.65v30.08c-6.52.94-11.54 6.54-11.54 13.3 0 7.43 6.04 13.47 13.46 13.47 7.42 0 13.46-6.02 13.46-13.44 0-6.77-5.03-12.37-11.54-13.3zm-1.92-53c5.3 0 9.6 4.3 9.6 9.6s-4.3 9.63-9.6 9.63-9.62-4.3-9.62-9.62 4.3-9.6 9.62-9.6zm-25 51.92c-5.3 0-9.62-4.3-9.62-9.6s4.3-9.63 9.62-9.63 9.6 4.3 9.6 9.62-4.3 9.6-9.6 9.6zm25 24c-5.3 0-9.62-4.3-9.62-9.6s4.3-9.63 9.62-9.63 9.6 4.3 9.6 9.62-4.3 9.6-9.6 9.6z"/>
        <path d="M40.38 57.04V26.96c6.52-.94 11.54-6.54 11.54-13.3C51.92 6.22 45.88.18 38.46.18S25 6.22 25 13.64c0 3.57 1.4 6.82 3.68 9.23L20.22 34.7c-2-1.15-4.3-1.83-6.76-1.83C6.04 32.87 0 38.92 0 46.35S6.04 59.8 13.46 59.8s13.46-6.03 13.46-13.45c0-3.57-1.4-6.82-3.68-9.23l8.46-11.84c1.46.85 3.1 1.43 4.84 1.68v30.08c-6.5.94-11.54 6.54-11.54 13.3 0 7.43 6.04 13.47 13.46 13.47s13.46-6 13.46-13.42c0-6.77-5.02-12.37-11.54-13.3zm-1.92-53c5.3 0 9.62 4.3 9.62 9.6s-4.3 9.63-9.62 9.63-9.6-4.3-9.6-9.62 4.3-9.6 9.6-9.6zm-25 51.92c-5.3 0-9.6-4.3-9.6-9.6s4.3-9.63 9.6-9.63 9.62 4.3 9.62 9.62-4.3 9.6-9.62 9.6zm25 24c-5.3 0-9.6-4.3-9.6-9.6s4.3-9.63 9.6-9.63 9.62 4.3 9.62 9.62-4.3 9.6-9.62 9.6z"/>
    </symbol>

    <!-- LinkedIn -->
    <symbol id="linkedin" viewBox="0 0 100 100">
        <path fill="#0077b5" d="M92.6 0H7.38C3.3 0 0 3.23 0 7.2v85.6c0 3.97 3.3 7.2 7.38 7.2H92.6c4.08 0 7.4-3.23 7.4-7.2V7.2c0-3.97-3.32-7.2-7.4-7.2zM29.66 85.2H14.82V37.5h14.84v47.7zm-7.42-54.23c-4.76 0-8.6-3.85-8.6-8.6s3.84-8.6 8.6-8.6c4.75 0 8.6 3.85 8.6 8.6s-3.85 8.6-8.6 8.6zM85.22 85.2H70.4V62c0-5.53-.1-12.65-7.72-12.65-7.72 0-8.9 6.03-8.9 12.26v23.6h-14.8V37.5h14.2V44h.2c2-3.74 6.83-7.7 14.05-7.7 15 0 17.8 9.9 17.8 22.74V85.2z"/>
    </symbol>

    <!-- GitHub -->
    <symbol id="github" viewBox="0 0 100 100">
        <path fill="#000000" d="M50 1.23c-27.6 0-50 22.4-50 50 0 22.1 14.33 40.84 34.2 47.45 2.5.46 3.4-1.1 3.4-2.4l-.06-8.5c-13.9 3-16.84-6.72-16.84-6.72-2.28-5.77-5.55-7.3-5.55-7.3-4.54-3.1.34-3.05.34-3.05 5 .4 7.6 5.2 7.6 5.2 4.46 7.65 11.7 5.45 14.55 4.17.44-3.23 1.74-5.44 3.16-6.7-11.1-1.25-22.76-5.54-22.76-24.7 0-5.46 1.94-9.92 5.14-13.42-.5-1.25-2.23-6.33.5-13.22 0 0 4.2-1.33 13.74 5.14 3.97-1.1 8.25-1.66 12.5-1.7 4.25.04 8.53.6 12.52 1.7 9.62-6.53 13.8-5.17 13.8-5.17 2.72 6.9 1 11.97.5 13.23 3.2 3.5 5.13 7.97 5.13 13.43 0 19.2-11.7 23.44-22.84 24.67 1.8 1.54 3.4 4.6 3.4 9.25 0 6.7-.06 12.08-.06 13.72 0 1.34.9 2.9 3.44 2.4C85.7 92.05 100 73.32 100 51.24c0-27.62-22.4-50-50-50z"/>
    </symbol>

    <!-- Twitter -->
    <symbol id="twiter" viewBox="0 0 100 100">
        <path fill="#1da1f2" d="M31.45 93.65c37.73 0 58.37-31.27 58.37-58.38 0-.9 0-1.77-.06-2.65 4.02-2.9 7.5-6.5 10.24-10.62-3.74 1.66-7.72 2.75-11.78 3.23 4.28-2.57 7.48-6.6 9.02-11.35-4.03 2.4-8.44 4.07-13.03 4.98-7.74-8.26-20.74-8.66-29-.9-5.33 5.02-7.6 12.5-5.94 19.6-16.5-.8-31.86-8.6-42.28-21.42C1.5 25.5 4.3 37.5 13.3 43.52c-3.25-.1-6.45-.97-9.3-2.56v.26c0 9.76 6.9 18.17 16.46 20.1-3.02.83-6.2.95-9.26.36 2.68 8.36 10.4 14.08 19.16 14.25-7.26 5.7-16.24 8.8-25.48 8.8-1.63 0-3.26-.1-4.88-.3 9.38 6.02 20.3 9.22 31.45 9.2"/>
    </symbol>

    <!-- Dribbble -->
    <symbol id="dribbble" viewBox="0 0 100 100">
        <circle fill="#ea4C89" cx="50" cy="50" r="48"/>
        <path fill="#c32361" d="M50 99.93C22.43 99.93 0 77.53 0 50S22.43.07 50 .07s50 22.4 50 49.93-22.43 49.93-50 49.93zm42.17-43.1c-1.46-.46-13.22-3.96-26.6-1.82 5.58 15.36 7.85 27.85 8.3 30.44 9.57-6.47 16.4-16.72 18.3-28.58zm-25.5 32.5c-.62-3.75-3.1-16.8-9.1-32.35l-.28.1C33.2 65.46 24.52 82.14 23.8 83.7c7.23 5.65 16.33 9.02 26.2 9.02 5.92 0 11.55-1.2 16.68-3.4zm-48.4-10.75c.97-1.65 12.7-21.03 34.72-28.14.52-.18 1.1-.35 1.65-.5-1.07-2.43-2.24-4.86-3.46-7.25-21.3 6.35-42 6.1-43.9 6.04v1.3C7.3 61 11.44 71 18.26 78.57zM8.2 41.33c1.9.02 19.5.1 39.48-5.2C40.6 23.57 32.98 13 31.84 11.47 19.9 17.1 10.96 28.1 8.2 41.33zM40 8.6c1.17 1.58 8.93 12.13 15.93 24.97 15.18-5.7 21.6-14.32 22.38-15.4C70.8 11.47 60.88 7.4 50 7.4c-3.45 0-6.8.43-10 1.2zm43.06 14.5c-.9 1.2-8.06 10.37-23.85 16.8 1 2.04 1.98 4.1 2.86 6.2.32.73.62 1.46.92 2.2 14.22-1.8 28.33 1.06 29.74 1.36-.1-10.06-3.7-19.3-9.63-26.57z"/>
    </symbol>

    <!-- Facebook -->
    <symbol id="facebook" viewBox="0 0 100 100">
        <path fill="#3b5998" d="M94.48 0H5.52C2.47 0 0 2.47 0 5.52v88.96C0 97.53 2.47 100 5.52 100h47.9V61.27H40.37v-15.1H53.4v-11.1c0-12.9 7.9-19.96 19.42-19.96 5.52 0 10.27.4 11.65.6v13.5h-8c-6.26 0-7.47 3-7.47 7.37v9.63h14.94L82 61.27H69V100h25.48c3.05 0 5.52-2.47 5.52-5.52V5.52C100 2.47 97.53 0 94.48 0z"/>
    </symbol>

    <!-- PDF -->
    <symbol id="pdf" viewBox="0 0 80 100">
        <path fill="#070807" d="M79.44 20.73C72.74 14.06 66.07 7.4 59.4.7c-.48-.5-.97-.7-1.67-.7C42 .02 9 0 9 0v88h12v-4h-8V4h41v22h22v58h-8v4h12l.04-33.4c0-10.8-.06-21.58-.04-32.37 0-.63-.12-1.06-.56-1.5zM58 22V5l17 17H58z"/>
        <path fill="#e32821" d="M22 78h12V52h21v26h12c-7.18 7.1-15.73 14.83-23 22-7.22-7.12-14.62-14.7-22-22zM0 14h48v20H0z"/>
        <path fill="#ffffff" d="M14 26.64h-2.24v3.96H9V17h5c3.23 0 4.84 1.57 4.84 4.72 0 1.6-.4 2.8-1.23 3.65-.8.85-2 1.27-3.6 1.27zm-2.24-2.36h2.22c1.37 0 2.06-.85 2.06-2.56 0-.84-.17-1.44-.5-1.8-.33-.38-.85-.56-1.56-.56h-2.22v4.92zm13.6 6.32h-4.58V17h4.58c1.17 0 2.14.12 2.9.37.76.25 1.35.65 1.77 1.22.42.53.7 1.2.87 2 .16.73.24 1.72.24 2.95s-.07 2.24-.22 3.05c-.15.8-.42 1.54-.83 2.17s-1 1.08-1.8 1.37c-.78.3-1.77.43-2.97.43zm2.9-5.4c.03-.43.04-1.02.04-1.77s-.03-1.36-.08-1.8c-.05-.46-.18-.88-.38-1.25s-.5-.63-.9-.77c-.38-.1-.9-.2-1.58-.2h-1.82v8.8h1.82c1 0 1.73-.22 2.18-.73.4-.4.63-1.16.72-2.24zm5.28 5.4V17h8.68v2.4H36.3v4h4.84v2.4H36.3v4.8h-2.76z"/>
    </symbol>
</svg>