<?xml version="1.0" standalone="no"?>
<!DOCTYPE svg PUBLIC "-//W3C//DTD SVG 20010904//EN"
 "http://www.w3.org/TR/2001/REC-SVG-20010904/DTD/svg10.dtd">
<svg version="1.0" xmlns="http://www.w3.org/2000/svg"
 width="1024.000000pt" height="1024.000000pt" viewBox="0 0 1024.000000 1024.000000"
 preserveAspectRatio="xMidYMid meet">
<metadata>
Created by potrace 1.11, written by Peter Selinger 2001-2013
</metadata>
<g transform="translate(0.000000,1024.000000) scale(0.100000,-0.100000)"
fill="#000000" stroke="none">
<path d="M4858 10236 c-1 -2 -50 -6 -108 -10 -58 -3 -116 -8 -130 -11 -14 -2
-52 -6 -85 -10 -33 -3 -76 -7 -95 -10 -58 -7 -294 -46 -300 -50 -3 -2 -26 -6
-50 -10 -94 -14 -412 -99 -582 -156 -429 -143 -829 -337 -1193 -577 -128 -84
-406 -289 -455 -334 -14 -13 -38 -34 -55 -46 -16 -13 -73 -63 -125 -110 -241
-221 -463 -465 -649 -712 -39 -52 -75 -100 -80 -106 -12 -15 -121 -178 -166
-249 -199 -314 -382 -694 -505 -1050 -69 -202 -140 -458 -174 -635 -2 -14 -9
-47 -15 -75 -6 -27 -13 -66 -16 -85 -12 -77 -34 -238 -40 -285 -3 -27 -8 -63
-10 -80 -26 -192 -26 -857 0 -1016 2 -13 6 -51 10 -84 3 -33 8 -76 10 -95 11
-75 27 -176 31 -200 3 -14 7 -38 9 -55 6 -39 13 -73 19 -93 3 -9 8 -33 11 -52
3 -19 20 -89 36 -155 17 -66 32 -127 34 -135 8 -34 66 -221 94 -300 179 -514
426 -977 757 -1415 62 -82 125 -163 139 -180 14 -16 36 -41 47 -55 155 -184
429 -455 623 -615 33 -27 62 -52 65 -55 15 -16 260 -196 350 -257 402 -271
882 -502 1325 -638 130 -40 313 -90 385 -105 25 -5 76 -16 113 -24 38 -9 85
-18 106 -21 20 -3 48 -8 61 -10 24 -5 105 -18 181 -29 20 -3 62 -8 95 -11 32
-4 75 -8 94 -10 221 -26 874 -26 1009 0 9 2 47 6 83 9 37 4 75 8 85 10 10 2
41 7 68 10 42 6 118 19 235 40 107 20 311 68 423 101 31 9 58 16 59 15 11 -4
416 143 523 190 22 10 74 32 115 50 72 31 287 138 397 199 215 117 588 374
786 541 228 193 511 478 652 655 22 28 42 52 45 55 14 13 145 186 212 280 71
101 180 271 228 355 13 22 36 63 52 90 36 64 186 363 217 435 91 212 183 468
239 670 28 100 56 212 54 217 0 2 4 17 9 35 11 36 47 213 55 268 3 19 9 60 14
90 9 54 14 85 25 185 23 199 30 335 30 600 0 227 -8 430 -19 495 -3 14 -7 52
-10 85 -8 77 -15 133 -21 165 -3 14 -7 43 -11 65 -23 165 -94 477 -145 643
-63 205 -139 414 -193 537 -12 28 -29 66 -36 85 -8 19 -49 106 -92 193 -320
643 -757 1196 -1318 1667 -10 8 -29 24 -42 35 -26 22 -296 224 -343 256 -639
440 -1412 737 -2205 844 -25 3 -56 8 -70 10 -14 2 -61 7 -105 10 -44 4 -98 9
-120 12 -47 5 -642 13 -647 9z"/>
</g>
</svg>
